HIERARCHY
ROOT Hips
{
	OFFSET 0.00000 0.00000 0.00000
	CHANNELS 6 Xposition Yposition Zposition Zrotation Yrotation Xrotation 
	JOINT LHipJoint
	{
		OFFSET 0 0 0
		CHANNELS 3 Zrotation Yrotation Xrotation
		JOINT LeftHip
		{
			OFFSET 1.84395 -1.68683 0.74144
			CHANNELS 3 Zrotation Yrotation Xrotation
			JOINT LeftKnee
			{
				OFFSET 2.27037 -6.23779 0.00000
				CHANNELS 3 Zrotation Yrotation Xrotation
				JOINT LeftAnkle
				{
					OFFSET 2.56918 -7.05877 0.00000
					CHANNELS 3 Zrotation Yrotation Xrotation
					JOINT LeftToe
					{
						OFFSET 0.22276 -0.61202 1.71784
						CHANNELS 3 Zrotation Yrotation Xrotation
						End Site
						{
							OFFSET 0.00000 -0.00000 0.91613
						}
					}
				}
			}
		}
	}
	JOINT RHipJoint
	{
		OFFSET 0 0 0
		CHANNELS 3 Zrotation Yrotation Xrotation
		JOINT RightHip
		{
			OFFSET -1.76833 -1.68684 0.74144
			CHANNELS 3 Zrotation Yrotation Xrotation
			JOINT RightKnee
			{
				OFFSET -2.49360 -6.85110 0.00000
				CHANNELS 3 Zrotation Yrotation Xrotation
				JOINT RightAnkle
				{
					OFFSET -2.55538 -7.02085 0.00000
					CHANNELS 3 Zrotation Yrotation Xrotation
					JOINT RightToe
					{
						OFFSET -0.21516 -0.59115 1.68050
						CHANNELS 3 Zrotation Yrotation Xrotation
						End Site
						{
							OFFSET -0.00000 -0.00000 0.89604
						}
					}
				}
			}
		}
	}
	JOINT lowerback
	{
		OFFSET 0 0 0
		CHANNELS 3 Zrotation Yrotation Xrotation
		JOINT Chest
		{
			OFFSET 0.06382 1.72312 -0.19613
			CHANNELS 3 Zrotation Yrotation Xrotation
			JOINT Chest2
			{
				OFFSET -0.00055 1.73507 0.23859
				CHANNELS 3 Zrotation Yrotation Xrotation
				JOINT lowerneck
				{
					OFFSET 0 0 0
					CHANNELS 3 Zrotation Yrotation Xrotation
					JOINT Neck
					{
						OFFSET 0.03638 1.65562 0.09633
						CHANNELS 3 Zrotation Yrotation Xrotation
						JOINT Head
						{
							OFFSET 0.06388 1.62807 -0.32386
							CHANNELS 3 Zrotation Yrotation Xrotation
							End Site
							{
								OFFSET 0.00995 1.67644 -0.12021
							}
						}
					}
				}
				JOINT LeftCollar
				{
					OFFSET 0 0 0
					CHANNELS 3 Zrotation Yrotation Xrotation
					JOINT LeftShoulder
					{
						OFFSET 3.09648 1.42991 0.28122
CHANNELS 3 Zrotation Xrotation Yrotation
						JOINT LeftElbow
						{
OFFSET 0 -5.118780 -0.000000
CHANNELS 3 Zrotation Xrotation Yrotation
							JOINT LeftWrist
							{
OFFSET 0 -3.599710 0.000000
CHANNELS 3 Zrotation Xrotation Yrotation
								JOINT lhand
								{
									OFFSET 0 0 0
CHANNELS 3 Zrotation Xrotation Yrotation
									JOINT LFingers
									{
OFFSET 0 -0.628770 0.000000
CHANNELS 3 Zrotation Xrotation Yrotation
										End Site
										{
OFFSET 0 -0.506930 0.000000
										}
									}
								}
								JOINT LThumb
								{
OFFSET 0 0.000000 0.000000
CHANNELS 3 Zrotation Xrotation Yrotation
									End Site
									{
OFFSET 0 -0.514670 0.514670
									}
								}
							}
						}
					}
				}
				JOINT RightCollar
				{
					OFFSET 0 0 0
					CHANNELS 3 Zrotation Yrotation Xrotation
					JOINT RightShoulder
					{
						OFFSET -3.33565 1.14597 0.05047
CHANNELS 3 Zrotation Xrotation Yrotation
						JOINT RightElbow
						{
OFFSET 0 -5.490200 0.000000
CHANNELS 3 Zrotation Xrotation Yrotation
							JOINT RightWrist
							{
OFFSET 0 -3.206590 -0.000000
CHANNELS 3 Zrotation Xrotation Yrotation
								JOINT rhand
								{
									OFFSET 0 0 0
CHANNELS 3 Zrotation Xrotation Yrotation
									JOINT RFingers
									{
OFFSET 0 -0.691880 0.000000
CHANNELS 3 Zrotation Xrotation Yrotation
										End Site
										{
OFFSET 0 -0.557810 0.000000
										}
									}
								}
								JOINT RThumb
								{
OFFSET 0 0.000000 0.000000
CHANNELS 3 Zrotation Xrotation Yrotation
									End Site
									{
OFFSET 0 -0.566330 0.566330
									}
								}
							}
						}
					}
				}
			}
		}
	}
}
MOTION
Frames: 4
Frame Time: 0.008333333333333333
0.738669 17.820866 8.561999 -9.541101 4.218370 31.442289 0.000000 0.000000 0.000000 13.916238 -58.158450 -9.635669 0.148468 -2.482881 -6.842058 5.029177 34.683263 -61.980230 5.114782 13.511255 41.315113 0.000000 0.000000 0.000000 10.382910 42.015104 -19.531667 -0.015850 0.812740 -2.233784 2.594290 -29.711924 -25.109397 -1.158483 -6.833250 19.222250 6.560499 0.166908 8.945402 4.324462 1.240320 -1.437465 0.686517 0.449245 -6.519661 0.278836 -2.997479 -14.289166 7.512453 -4.136154 -3.973899 2.139808 -1.900864 1.346894 0.000000 0.000000 0.000000 185.551562 -66.211526 173.480789 5.617266 -9.622265 0.473133 54.347283 60.882201 16.922680 0.000000 0.000000 0.000000 -7.125000 0.000000 0.000000 16.452796 3.360729 16.151236 0.000000 0.000000 0.000000 -187.746871 -67.534939 -139.729703 -10.034218 -16.792324 -1.485436 -21.114468 80.847625 39.966527 0.000000 0.000000 0.000000 7.125000 0.000000 0.000000 22.305835 70.781859 -13.944128
0.755706 17.815898 8.551896 -9.207328 4.701087 32.055340 0.000000 0.000000 0.000000 14.958723 -58.432844 -10.945295 0.158302 -2.563763 -7.066587 5.487991 33.592311 -62.247405 5.402278 13.823027 42.533057 0.000000 0.000000 0.000000 9.724953 41.505181 -20.372156 -0.017801 0.860913 -2.366135 2.654197 -29.907394 -25.059761 -1.114635 -6.707206 18.850769 6.401630 0.080350 9.092549 4.416708 1.131463 -1.475911 0.888511 0.400705 -6.653460 1.034020 -2.826134 -13.795215 6.593165 -3.995198 -3.981493 1.715715 -1.871140 1.203140 0.000000 0.000000 0.000000 184.823590 -65.556322 172.690967 5.611962 -9.613419 0.472252 54.407556 61.552583 16.259242 0.000000 0.000000 0.000000 -7.125000 0.000000 0.000000 16.665645 4.291078 16.080929 0.000000 0.000000 0.000000 -187.565039 -66.571190 -141.926372 -9.744967 -16.339442 -1.402561 -21.169411 82.996766 39.432083 0.000000 0.000000 0.000000 7.125000 0.000000 0.000000 21.414885 70.325435 -13.154257
0.769925 17.811130 8.545481 -9.196058 5.204530 32.482102 0.000000 0.000000 0.000000 16.221461 -58.607261 -12.213563 0.161601 -2.589789 -7.138717 5.328643 33.830352 -62.044946 5.368996 13.787629 42.393316 0.000000 0.000000 0.000000 9.555841 41.126167 -20.942827 -0.019201 0.895455 -2.461209 2.593195 -29.729815 -25.174664 -1.149867 -6.808647 19.149737 6.630236 0.175913 9.279036 4.576972 1.296989 -1.248078 0.903407 0.482254 -6.512369 1.632890 -2.835324 -14.806700 5.381796 -4.140069 -3.515150 1.199835 -1.949989 1.481201 0.000000 0.000000 0.000000 185.336324 -64.546551 173.704138 5.619482 -9.626014 0.473533 54.363839 63.180754 15.501150 0.000000 0.000000 0.000000 -7.125000 0.000000 0.000000 16.844577 5.416759 15.898081 0.000000 0.000000 0.000000 -185.223662 -65.532467 -137.606627 -10.000623 -16.740516 -1.475180 -20.877245 80.447991 39.975503 0.000000 0.000000 0.000000 7.125000 0.000000 0.000000 22.611117 70.711677 -14.104469
0.787298 17.804547 8.546088 -9.081738 5.552240 32.785941 0.000000 0.000000 0.000000 16.884072 -58.766314 -13.001872 0.164122 -2.610304 -7.195503 5.337097 33.663371 -61.943636 5.430403 13.852691 42.650445 0.000000 0.000000 0.000000 9.322751 40.743063 -21.237021 -0.022336 0.963858 -2.649344 2.522912 -29.504358 -25.248394 -1.231271 -7.036969 19.825033 6.410415 -0.023361 9.548113 4.683762 1.065332 -1.545966 1.178513 0.366052 -6.998457 2.605966 -2.558138 -13.156857 4.696297 -3.821014 -4.009475 0.854286 -1.854317 0.986247 0.000000 0.000000 0.000000 184.251627 -64.871462 171.529391 5.665253 -9.702705 0.481259 53.875593 62.145995 16.278069 0.000000 0.000000 0.000000 -7.125000 0.000000 0.000000 16.356657 4.512901 15.685407 0.000000 0.000000 0.000000 -185.096492 -65.231551 -135.904049 -10.052760 -16.822039 -1.490188 -21.021766 78.808668 40.257560 0.000000 0.000000 0.000000 7.125000 0.000000 0.000000 22.880246 71.008148 -14.425448
